<svg width="87" height="56" viewBox="0 0 87 56" fill="none" xmlns="http://www.w3.org/2000/svg">
<path d="M8.97 44.33C6.99 44.33 5.5 43.84 4.5 42.86C3.5 41.86 3 40.37 3 38.39V32.18H0.12V28.79H3V25.07L7.53 23.96V28.79H11.43V32.18H7.53V38.15C7.53 39.11 7.73 39.77 8.13 40.13C8.53 40.49 9.04 40.67 9.66 40.67C10.04 40.67 10.35 40.65 10.59 40.61C10.85 40.55 11.12 40.47 11.4 40.37V43.88C11.02 44.04 10.62 44.15 10.2 44.21C9.78 44.29 9.37 44.33 8.97 44.33ZM21.258 44.33C18.618 44.33 16.558 43.62 15.078 42.2C13.598 40.78 12.858 38.85 12.858 36.41C12.858 34.83 13.168 33.45 13.788 32.27C14.428 31.09 15.308 30.17 16.428 29.51C17.568 28.83 18.898 28.49 20.418 28.49C21.918 28.49 23.168 28.81 24.168 29.45C25.188 30.09 25.948 30.99 26.448 32.15C26.968 33.29 27.228 34.62 27.228 36.14V37.19H16.578V34.94H23.928L23.418 35.36C23.418 34.1 23.158 33.15 22.638 32.51C22.138 31.85 21.408 31.52 20.448 31.52C19.388 31.52 18.568 31.91 17.988 32.69C17.428 33.47 17.148 34.59 17.148 36.05V36.53C17.148 38.01 17.508 39.11 18.228 39.83C18.968 40.55 20.028 40.91 21.408 40.91C22.228 40.91 22.998 40.81 23.718 40.61C24.458 40.39 25.158 40.05 25.818 39.59L27.078 42.59C26.318 43.15 25.438 43.58 24.438 43.88C23.458 44.18 22.398 44.33 21.258 44.33ZM36.0122 44.33C34.6922 44.33 33.5322 44.01 32.5322 43.37C31.5322 42.73 30.7522 41.82 30.1922 40.64C29.6322 39.46 29.3522 38.04 29.3522 36.38C29.3522 34.74 29.6322 33.33 30.1922 32.15C30.7522 30.97 31.5322 30.07 32.5322 29.45C33.5322 28.81 34.6922 28.49 36.0122 28.49C37.2322 28.49 38.3222 28.79 39.2822 29.39C40.2622 29.97 40.9022 30.76 41.2022 31.76H40.8722L41.2322 28.79H45.5822C45.5222 29.45 45.4622 30.12 45.4022 30.8C45.3622 31.46 45.3422 32.11 45.3422 32.75V44H40.8422L40.8122 41.15H41.1722C40.8522 42.11 40.2122 42.88 39.2522 43.46C38.2922 44.04 37.2122 44.33 36.0122 44.33ZM37.3922 40.91C38.4322 40.91 39.2722 40.54 39.9122 39.8C40.5522 39.06 40.8722 37.92 40.8722 36.38C40.8722 34.84 40.5522 33.71 39.9122 32.99C39.2722 32.27 38.4322 31.91 37.3922 31.91C36.3522 31.91 35.5122 32.27 34.8722 32.99C34.2322 33.71 33.9122 34.84 33.9122 36.38C33.9122 37.92 34.2222 39.06 34.8422 39.8C35.4822 40.54 36.3322 40.91 37.3922 40.91ZM49.0573 44V32.75C49.0573 32.11 49.0373 31.46 48.9973 30.8C48.9573 30.12 48.8973 29.45 48.8173 28.79H53.1673L53.4973 31.61H53.1373C53.5773 30.65 54.2273 29.89 55.0873 29.33C55.9473 28.77 56.9673 28.49 58.1473 28.49C59.3073 28.49 60.2773 28.77 61.0573 29.33C61.8573 29.87 62.4273 30.72 62.7673 31.88H62.2873C62.7273 30.84 63.4273 30.02 64.3873 29.42C65.3473 28.8 66.4373 28.49 67.6573 28.49C69.3773 28.49 70.6573 29 71.4973 30.02C72.3373 31.04 72.7573 32.64 72.7573 34.82V44H68.2273V34.97C68.2273 33.91 68.0573 33.15 67.7173 32.69C67.3773 32.23 66.8273 32 66.0673 32C65.1673 32 64.4573 32.32 63.9373 32.96C63.4173 33.6 63.1573 34.48 63.1573 35.6V44H58.6273V34.97C58.6273 33.91 58.4573 33.15 58.1173 32.69C57.7773 32.23 57.2273 32 56.4673 32C55.5673 32 54.8573 32.32 54.3373 32.96C53.8373 33.6 53.5873 34.48 53.5873 35.6V44H49.0573Z" fill="white"/>
<path d="M76.8833 44V36.32H84.6593V44H76.8833Z" fill="#0BBEF2"/>
</svg>
