<svg width="335" height="202" viewBox="0 0 335 202" fill="none" xmlns="http://www.w3.org/2000/svg">
<g filter="url(#filter0_d_2_1020)">
<g filter="url(#filter1_d_2_1020)">
<rect x="32" y="21" width="263" height="130" rx="6" fill="white"/>
<rect x="32" y="21" width="263" height="130" rx="6" stroke="#E9EFF4"/>
</g>
<rect x="47" y="111" width="24" height="24" rx="2" fill="white" stroke="#4DA1FF" stroke-opacity="0.7"/>
<path fill-rule="evenodd" clip-rule="evenodd" d="M54.6948 122.601L62.0767 125.744L62.9136 118.732L54.6948 122.601ZM62.251 126.232C62.222 126.232 62.1931 126.226 62.1662 126.214L54.1229 122.79C54.0496 122.759 54.0017 122.69 54 122.613C53.9986 122.537 54.0436 122.466 54.1156 122.432L63.0709 118.218C63.1388 118.186 63.2199 118.192 63.2822 118.233C63.3444 118.275 63.3776 118.345 63.3691 118.417L62.4571 126.056C62.4496 126.119 62.4112 126.175 62.3538 126.206C62.322 126.223 62.2865 126.232 62.251 126.232Z" fill="#4DA1FF"/>
<path d="M54.6948 122.601L54.6309 122.465L54.328 122.608L54.636 122.739L54.6948 122.601ZM62.0767 125.744L62.018 125.882L62.202 125.96L62.2257 125.761L62.0767 125.744ZM62.9136 118.732L63.0626 118.75L63.0946 118.481L62.8497 118.597L62.9136 118.732ZM62.1662 126.214L62.1074 126.352L62.1084 126.353L62.1662 126.214ZM54.1229 122.79L54.0641 122.928L54.0641 122.928L54.1229 122.79ZM54 122.613L53.8501 122.616L53.8501 122.617L54 122.613ZM54.1156 122.432L54.0517 122.297L54.0516 122.297L54.1156 122.432ZM63.0709 118.218L63.1348 118.354L63.1349 118.354L63.0709 118.218ZM63.2822 118.233L63.1987 118.358L63.199 118.358L63.2822 118.233ZM63.3691 118.417L63.518 118.435L63.5181 118.435L63.3691 118.417ZM62.4571 126.056L62.606 126.074L62.606 126.074L62.4571 126.056ZM62.3538 126.206L62.2825 126.074L62.2817 126.074L62.3538 126.206ZM54.636 122.739L62.018 125.882L62.1355 125.606L54.7535 122.463L54.636 122.739ZM62.2257 125.761L63.0626 118.75L62.7647 118.715L61.9278 125.726L62.2257 125.761ZM62.8497 118.597L54.6309 122.465L54.7587 122.736L62.9775 118.868L62.8497 118.597ZM62.251 126.082C62.2424 126.082 62.2331 126.08 62.2239 126.076L62.1084 126.353C62.1532 126.372 62.2016 126.382 62.251 126.382V126.082ZM62.2249 126.076L54.1816 122.652L54.0641 122.928L62.1074 126.352L62.2249 126.076ZM54.1817 122.652C54.1598 122.643 54.1503 122.625 54.15 122.61L53.8501 122.617C53.8531 122.755 53.9395 122.875 54.0641 122.928L54.1817 122.652ZM54.15 122.611C54.1497 122.596 54.1582 122.578 54.1796 122.568L54.0516 122.297C53.929 122.355 53.8474 122.478 53.8501 122.616L54.15 122.611ZM54.1795 122.568L63.1348 118.354L63.007 118.082L54.0517 122.297L54.1795 122.568ZM63.1349 118.354C63.1556 118.344 63.1807 118.346 63.1987 118.358L63.3656 118.109C63.2591 118.037 63.1219 118.028 63.0069 118.082L63.1349 118.354ZM63.199 118.358C63.2159 118.37 63.2218 118.386 63.2201 118.4L63.5181 118.435C63.5334 118.305 63.4729 118.18 63.3653 118.109L63.199 118.358ZM63.2202 118.399L62.3082 126.039L62.606 126.074L63.518 118.435L63.2202 118.399ZM62.3082 126.039C62.3067 126.051 62.2986 126.065 62.2825 126.074L62.425 126.338C62.5238 126.284 62.5926 126.187 62.606 126.074L62.3082 126.039ZM62.2817 126.074C62.2728 126.079 62.2622 126.082 62.251 126.082V126.382C62.3109 126.382 62.3712 126.367 62.4258 126.337L62.2817 126.074Z" fill="#4DA1FF"/>
<path fill-rule="evenodd" clip-rule="evenodd" d="M57.9014 127.465C57.8825 127.465 57.8634 127.463 57.8445 127.458C57.7547 127.433 57.6932 127.355 57.6939 127.266L57.7198 124.106C57.7202 124.059 57.7385 124.014 57.771 123.978L63.0032 118.266C63.0787 118.184 63.2099 118.175 63.2962 118.247C63.3825 118.319 63.3915 118.443 63.3161 118.525L58.1344 124.183L58.1147 126.556L59.2581 124.772C59.318 124.679 59.4457 124.65 59.5434 124.707C59.6411 124.763 59.672 124.885 59.6123 124.978L58.0786 127.371C58.0402 127.43 57.9723 127.465 57.9014 127.465" fill="#4DA1FF"/>
<path d="M57.9014 127.465C57.8825 127.465 57.8634 127.463 57.8445 127.458C57.7547 127.433 57.6932 127.355 57.6939 127.266L57.7198 124.106C57.7202 124.059 57.7385 124.014 57.771 123.978L63.0032 118.266C63.0787 118.184 63.2099 118.175 63.2962 118.247C63.3825 118.319 63.3915 118.443 63.3161 118.525L58.1344 124.183L58.1147 126.556L59.2581 124.772C59.318 124.679 59.4457 124.65 59.5434 124.707C59.6411 124.763 59.672 124.885 59.6123 124.978L58.0786 127.371C58.0402 127.43 57.9723 127.465 57.9014 127.465" stroke="#4DA1FF" stroke-width="0.3"/>
<rect x="108" y="111" width="25" height="25" rx="2" fill="#FFD012" fill-opacity="0.1"/>
<path d="M119.838 125.125V126H116.441V125.125H119.838ZM116.753 119.602V126H115.65V119.602H116.753ZM119.395 122.273V123.135H116.441V122.273H119.395ZM119.816 119.602V120.48H116.441V119.602H119.816ZM123.871 124.352C123.871 124.22 123.85 124.103 123.809 124C123.771 123.898 123.702 123.804 123.603 123.719C123.503 123.634 123.362 123.552 123.181 123.473C123.002 123.391 122.774 123.308 122.495 123.223C122.191 123.129 121.909 123.025 121.652 122.911C121.397 122.793 121.174 122.659 120.984 122.506C120.793 122.351 120.645 122.174 120.54 121.975C120.434 121.772 120.382 121.54 120.382 121.276C120.382 121.015 120.436 120.778 120.544 120.564C120.655 120.35 120.812 120.166 121.014 120.01C121.219 119.852 121.461 119.73 121.739 119.646C122.018 119.558 122.325 119.514 122.662 119.514C123.137 119.514 123.546 119.602 123.888 119.777C124.234 119.953 124.499 120.189 124.684 120.485C124.871 120.781 124.965 121.107 124.965 121.465H123.871C123.871 121.254 123.825 121.068 123.735 120.907C123.647 120.743 123.512 120.614 123.33 120.52C123.152 120.426 122.924 120.379 122.649 120.379C122.388 120.379 122.172 120.419 121.999 120.498C121.826 120.577 121.697 120.684 121.612 120.819C121.527 120.954 121.485 121.106 121.485 121.276C121.485 121.396 121.512 121.506 121.568 121.605C121.624 121.702 121.709 121.793 121.823 121.878C121.937 121.96 122.081 122.038 122.254 122.111C122.426 122.184 122.63 122.254 122.864 122.322C123.219 122.427 123.528 122.544 123.792 122.673C124.055 122.799 124.275 122.943 124.451 123.104C124.627 123.265 124.758 123.448 124.846 123.653C124.934 123.855 124.978 124.085 124.978 124.343C124.978 124.613 124.924 124.856 124.816 125.073C124.707 125.287 124.552 125.47 124.35 125.622C124.151 125.771 123.91 125.887 123.629 125.969C123.351 126.048 123.04 126.088 122.697 126.088C122.39 126.088 122.087 126.047 121.788 125.965C121.492 125.883 121.222 125.758 120.979 125.591C120.736 125.421 120.543 125.21 120.399 124.958C120.256 124.704 120.184 124.406 120.184 124.066H121.287C121.287 124.274 121.322 124.452 121.392 124.598C121.466 124.745 121.567 124.865 121.695 124.958C121.824 125.049 121.974 125.117 122.144 125.161C122.317 125.205 122.501 125.227 122.697 125.227C122.955 125.227 123.171 125.19 123.343 125.117C123.519 125.043 123.651 124.941 123.739 124.809C123.827 124.677 123.871 124.525 123.871 124.352Z" fill="#FFD012"/>
<rect x="78" y="111" width="25" height="25" rx="2" fill="#4DA1FF" fill-opacity="0.1"/>
<path d="M86.1421 120.454L84.2305 126H83.0747L85.4829 119.602H86.2212L86.1421 120.454ZM87.7417 126L85.8257 120.454L85.7422 119.602H86.4849L88.9019 126H87.7417ZM87.6494 123.627V124.501H84.1689V123.627H87.6494ZM89.8317 119.602H90.8161L92.6662 124.537L94.5119 119.602H95.4963L93.0529 126H92.2707L89.8317 119.602ZM89.3835 119.602H90.3195L90.4821 123.873V126H89.3835V119.602ZM95.0085 119.602H95.9489V126H94.8459V123.873L95.0085 119.602Z" fill="#4DA1FF"/>
<path d="M50.7734 74.9922L52.749 68.0469H53.7061L53.1523 70.7471L51.0264 78H50.0762L50.7734 74.9922ZM48.7295 68.0469L50.3018 74.8555L50.7734 78H49.8301L47.417 68.0469H48.7295ZM56.2627 74.8486L57.8008 68.0469H59.1201L56.7139 78H55.7705L56.2627 74.8486ZM53.8496 68.0469L55.7705 74.9922L56.4678 78H55.5176L53.4668 70.7471L52.9062 68.0469H53.8496ZM62.9553 78.1367C62.4404 78.1367 61.9732 78.0501 61.554 77.877C61.1393 77.6992 60.7815 77.4508 60.4807 77.1318C60.1845 76.8128 59.9566 76.4346 59.7971 75.9971C59.6376 75.5596 59.5579 75.0811 59.5579 74.5615V74.2744C59.5579 73.6729 59.6468 73.1374 59.8245 72.668C60.0022 72.194 60.2438 71.793 60.5491 71.4648C60.8544 71.1367 61.2008 70.8883 61.5882 70.7197C61.9755 70.5511 62.3766 70.4668 62.7913 70.4668C63.3199 70.4668 63.7757 70.5579 64.1585 70.7402C64.5458 70.9225 64.8626 71.1777 65.1087 71.5059C65.3548 71.8294 65.5371 72.2122 65.6555 72.6543C65.774 73.0918 65.8333 73.5703 65.8333 74.0898V74.6572H60.3098V73.625H64.5686V73.5293C64.5504 73.2012 64.482 72.8822 64.3635 72.5723C64.2496 72.2624 64.0673 72.0072 63.8167 71.8066C63.566 71.6061 63.2242 71.5059 62.7913 71.5059C62.5042 71.5059 62.2399 71.5674 61.9983 71.6904C61.7568 71.8089 61.5494 71.9867 61.3762 72.2236C61.2031 72.4606 61.0686 72.75 60.9729 73.0918C60.8772 73.4336 60.8294 73.8278 60.8294 74.2744V74.5615C60.8294 74.9124 60.8772 75.2428 60.9729 75.5527C61.0732 75.8581 61.2167 76.127 61.4036 76.3594C61.595 76.5918 61.8251 76.7741 62.094 76.9062C62.3675 77.0384 62.6774 77.1045 63.0237 77.1045C63.4703 77.1045 63.8486 77.0133 64.1585 76.8311C64.4684 76.6488 64.7395 76.4049 64.9719 76.0996L65.7376 76.708C65.5781 76.9495 65.3753 77.1797 65.1292 77.3984C64.8831 77.6172 64.58 77.7949 64.22 77.9316C63.8645 78.0684 63.443 78.1367 62.9553 78.1367ZM67.0162 67.5H68.2876V76.5645L68.1783 78H67.0162V67.5ZM73.2847 74.2402V74.3838C73.2847 74.9215 73.2209 75.4206 73.0933 75.8809C72.9657 76.3366 72.7789 76.7331 72.5328 77.0703C72.2867 77.4076 71.9859 77.6696 71.6304 77.8564C71.2749 78.0433 70.8671 78.1367 70.4068 78.1367C69.9374 78.1367 69.5249 78.057 69.1695 77.8975C68.8186 77.7334 68.5223 77.4987 68.2808 77.1934C68.0393 76.888 67.8456 76.5189 67.6998 76.0859C67.5585 75.653 67.4605 75.1654 67.4058 74.623V73.9941C67.4605 73.4473 67.5585 72.9574 67.6998 72.5244C67.8456 72.0915 68.0393 71.7223 68.2808 71.417C68.5223 71.1071 68.8186 70.8724 69.1695 70.7129C69.5204 70.5488 69.9283 70.4668 70.3931 70.4668C70.858 70.4668 71.2704 70.5579 71.6304 70.7402C71.9904 70.918 72.2912 71.1732 72.5328 71.5059C72.7789 71.8385 72.9657 72.2373 73.0933 72.7021C73.2209 73.1624 73.2847 73.6751 73.2847 74.2402ZM72.0132 74.3838V74.2402C72.0132 73.8711 71.979 73.5247 71.9107 73.2012C71.8423 72.873 71.733 72.5859 71.5826 72.3398C71.4322 72.0892 71.2339 71.8932 70.9878 71.752C70.7417 71.6061 70.4387 71.5332 70.0787 71.5332C69.7596 71.5332 69.4817 71.5879 69.2447 71.6973C69.0123 71.8066 68.814 71.9548 68.6499 72.1416C68.4859 72.3239 68.3514 72.5335 68.2466 72.7705C68.1464 73.0029 68.0712 73.2445 68.021 73.4951V75.1426C68.094 75.4616 68.2124 75.7692 68.3765 76.0654C68.5451 76.3571 68.7684 76.5964 69.0464 76.7832C69.329 76.9701 69.6776 77.0635 70.0923 77.0635C70.4341 77.0635 70.7258 76.9951 70.9673 76.8584C71.2134 76.7171 71.4117 76.5234 71.5621 76.2773C71.717 76.0312 71.8309 75.7464 71.9039 75.4229C71.9768 75.0993 72.0132 74.7529 72.0132 74.3838ZM78.9041 76.0381C78.9041 75.8558 78.8631 75.6872 78.7811 75.5322C78.7036 75.3727 78.5418 75.2292 78.2957 75.1016C78.0542 74.9694 77.6896 74.8555 77.202 74.7598C76.7918 74.6732 76.4204 74.5706 76.0877 74.4521C75.7596 74.3337 75.4793 74.1901 75.2469 74.0215C75.019 73.8529 74.8436 73.6546 74.7205 73.4268C74.5975 73.1989 74.536 72.9323 74.536 72.627C74.536 72.3353 74.5998 72.0596 74.7274 71.7998C74.8595 71.54 75.0441 71.3099 75.2811 71.1094C75.5226 70.9089 75.812 70.7516 76.1492 70.6377C76.4865 70.5238 76.8625 70.4668 77.2772 70.4668C77.8696 70.4668 78.3755 70.5716 78.7947 70.7812C79.214 70.9909 79.5353 71.2712 79.7586 71.6221C79.9819 71.9684 80.0936 72.3535 80.0936 72.7773H78.8289C78.8289 72.5723 78.7674 72.374 78.6444 72.1826C78.5259 71.9867 78.3504 71.8249 78.118 71.6973C77.8901 71.5697 77.6099 71.5059 77.2772 71.5059C76.9263 71.5059 76.6414 71.5605 76.4227 71.6699C76.2085 71.7747 76.0513 71.9092 75.951 72.0732C75.8553 72.2373 75.8074 72.4105 75.8074 72.5928C75.8074 72.7295 75.8302 72.8525 75.8758 72.9619C75.9259 73.0667 76.0125 73.1647 76.1356 73.2559C76.2586 73.3424 76.4318 73.4245 76.6551 73.502C76.8784 73.5794 77.1632 73.6569 77.5096 73.7344C78.1157 73.8711 78.6147 74.0352 79.0067 74.2266C79.3986 74.418 79.6903 74.6527 79.8817 74.9307C80.0731 75.2087 80.1688 75.5459 80.1688 75.9424C80.1688 76.266 80.1004 76.5622 79.9637 76.8311C79.8315 77.0999 79.6378 77.3324 79.3826 77.5283C79.132 77.7197 78.8312 77.8701 78.4803 77.9795C78.1339 78.0843 77.7443 78.1367 77.3113 78.1367C76.6597 78.1367 76.1082 78.0205 75.6571 77.7881C75.2059 77.5557 74.8641 77.2549 74.6317 76.8857C74.3992 76.5166 74.283 76.127 74.283 75.7168H75.5545C75.5727 76.0632 75.673 76.3389 75.8553 76.5439C76.0376 76.7445 76.2609 76.888 76.5252 76.9746C76.7895 77.0566 77.0516 77.0977 77.3113 77.0977C77.6577 77.0977 77.9471 77.0521 78.1795 76.9609C78.4165 76.8698 78.5965 76.7445 78.7196 76.585C78.8426 76.4255 78.9041 76.2432 78.9041 76.0381ZM82.9171 70.6035V78H81.6456V70.6035H82.9171ZM81.5499 68.6416C81.5499 68.4365 81.6114 68.2633 81.7345 68.1221C81.8621 67.9808 82.0489 67.9102 82.295 67.9102C82.5365 67.9102 82.7211 67.9808 82.8487 68.1221C82.9809 68.2633 83.047 68.4365 83.047 68.6416C83.047 68.8376 82.9809 69.0062 82.8487 69.1475C82.7211 69.2842 82.5365 69.3525 82.295 69.3525C82.0489 69.3525 81.8621 69.2842 81.7345 69.1475C81.6114 69.0062 81.5499 68.8376 81.5499 68.6416ZM87.7572 70.6035V71.5742H83.7582V70.6035H87.7572ZM85.1117 68.8057H86.3763V76.168C86.3763 76.4186 86.4151 76.6077 86.4925 76.7354C86.57 76.863 86.6703 76.9473 86.7933 76.9883C86.9164 77.0293 87.0485 77.0498 87.1898 77.0498C87.2946 77.0498 87.404 77.0407 87.5179 77.0225C87.6364 76.9997 87.7253 76.9814 87.7845 76.9678L87.7914 78C87.6911 78.0319 87.559 78.0615 87.3949 78.0889C87.2354 78.1208 87.0417 78.1367 86.8138 78.1367C86.5039 78.1367 86.2191 78.0752 85.9593 77.9521C85.6996 77.8291 85.4922 77.624 85.3373 77.3369C85.1869 77.0452 85.1117 76.6533 85.1117 76.1611V68.8057ZM92.0231 78.1367C91.5081 78.1367 91.041 78.0501 90.6217 77.877C90.207 77.6992 89.8493 77.4508 89.5485 77.1318C89.2523 76.8128 89.0244 76.4346 88.8649 75.9971C88.7054 75.5596 88.6256 75.0811 88.6256 74.5615V74.2744C88.6256 73.6729 88.7145 73.1374 88.8922 72.668C89.07 72.194 89.3115 71.793 89.6168 71.4648C89.9222 71.1367 90.2685 70.8883 90.6559 70.7197C91.0433 70.5511 91.4443 70.4668 91.859 70.4668C92.3877 70.4668 92.8434 70.5579 93.2262 70.7402C93.6136 70.9225 93.9303 71.1777 94.1764 71.5059C94.4225 71.8294 94.6048 72.2122 94.7233 72.6543C94.8418 73.0918 94.901 73.5703 94.901 74.0898V74.6572H89.3776V73.625H93.6364V73.5293C93.6181 73.2012 93.5498 72.8822 93.4313 72.5723C93.3174 72.2624 93.1351 72.0072 92.8844 71.8066C92.6338 71.6061 92.292 71.5059 91.859 71.5059C91.5719 71.5059 91.3076 71.5674 91.0661 71.6904C90.8245 71.8089 90.6172 71.9867 90.444 72.2236C90.2708 72.4606 90.1364 72.75 90.0407 73.0918C89.945 73.4336 89.8971 73.8278 89.8971 74.2744V74.5615C89.8971 74.9124 89.945 75.2428 90.0407 75.5527C90.1409 75.8581 90.2845 76.127 90.4713 76.3594C90.6627 76.5918 90.8929 76.7741 91.1618 76.9062C91.4352 77.0384 91.7451 77.1045 92.0914 77.1045C92.5381 77.1045 92.9163 77.0133 93.2262 76.8311C93.5361 76.6488 93.8073 76.4049 94.0397 76.0996L94.8053 76.708C94.6458 76.9495 94.443 77.1797 94.1969 77.3984C93.9508 77.6172 93.6478 77.7949 93.2877 77.9316C92.9323 78.0684 92.5107 78.1367 92.0231 78.1367ZM101.163 78H99.8986V69.8242C99.8986 69.291 99.9943 68.8421 100.186 68.4775C100.382 68.1084 100.662 67.8304 101.027 67.6436C101.391 67.4521 101.824 67.3564 102.325 67.3564C102.471 67.3564 102.617 67.3656 102.763 67.3838C102.913 67.402 103.059 67.4294 103.2 67.4658L103.132 68.498C103.036 68.4753 102.927 68.4593 102.804 68.4502C102.685 68.4411 102.567 68.4365 102.448 68.4365C102.18 68.4365 101.947 68.4912 101.751 68.6006C101.56 68.7054 101.414 68.8604 101.314 69.0654C101.213 69.2705 101.163 69.5234 101.163 69.8242V78ZM102.736 70.6035V71.5742H98.7297V70.6035H102.736ZM103.522 74.3838V74.2266C103.522 73.6934 103.599 73.1989 103.754 72.7432C103.909 72.2829 104.133 71.8841 104.424 71.5469C104.716 71.2051 105.069 70.9408 105.484 70.7539C105.899 70.5625 106.363 70.4668 106.878 70.4668C107.398 70.4668 107.865 70.5625 108.28 70.7539C108.699 70.9408 109.054 71.2051 109.346 71.5469C109.642 71.8841 109.868 72.2829 110.023 72.7432C110.178 73.1989 110.255 73.6934 110.255 74.2266V74.3838C110.255 74.917 110.178 75.4115 110.023 75.8672C109.868 76.3229 109.642 76.7217 109.346 77.0635C109.054 77.4007 108.701 77.665 108.287 77.8564C107.876 78.0433 107.412 78.1367 106.892 78.1367C106.373 78.1367 105.905 78.0433 105.491 77.8564C105.076 77.665 104.721 77.4007 104.424 77.0635C104.133 76.7217 103.909 76.3229 103.754 75.8672C103.599 75.4115 103.522 74.917 103.522 74.3838ZM104.787 74.2266V74.3838C104.787 74.7529 104.83 75.1016 104.916 75.4297C105.003 75.7533 105.133 76.0404 105.306 76.291C105.484 76.5417 105.705 76.7399 105.969 76.8857C106.234 77.027 106.541 77.0977 106.892 77.0977C107.238 77.0977 107.541 77.027 107.801 76.8857C108.066 76.7399 108.284 76.5417 108.457 76.291C108.631 76.0404 108.761 75.7533 108.847 75.4297C108.938 75.1016 108.984 74.7529 108.984 74.3838V74.2266C108.984 73.862 108.938 73.5179 108.847 73.1943C108.761 72.8662 108.628 72.5768 108.451 72.3262C108.277 72.071 108.059 71.8704 107.794 71.7246C107.535 71.5788 107.229 71.5059 106.878 71.5059C106.532 71.5059 106.227 71.5788 105.962 71.7246C105.703 71.8704 105.484 72.071 105.306 72.3262C105.133 72.5768 105.003 72.8662 104.916 73.1943C104.83 73.5179 104.787 73.862 104.787 74.2266ZM112.819 71.7656V78H111.554V70.6035H112.785L112.819 71.7656ZM115.13 70.5625L115.123 71.7383C115.018 71.7155 114.918 71.7018 114.822 71.6973C114.731 71.6882 114.626 71.6836 114.508 71.6836C114.216 71.6836 113.958 71.7292 113.735 71.8203C113.512 71.9115 113.323 72.0391 113.168 72.2031C113.013 72.3672 112.89 72.5632 112.799 72.791C112.712 73.0143 112.655 73.2604 112.628 73.5293L112.272 73.7344C112.272 73.2878 112.315 72.8685 112.402 72.4766C112.493 72.0846 112.632 71.7383 112.819 71.4375C113.006 71.1322 113.243 70.8952 113.53 70.7266C113.822 70.5534 114.168 70.4668 114.569 70.4668C114.66 70.4668 114.765 70.4782 114.884 70.501C115.002 70.5192 115.084 70.5397 115.13 70.5625ZM122.294 70.6035V71.5742H118.295V70.6035H122.294ZM119.649 68.8057H120.913V76.168C120.913 76.4186 120.952 76.6077 121.03 76.7354C121.107 76.863 121.207 76.9473 121.33 76.9883C121.453 77.0293 121.586 77.0498 121.727 77.0498C121.832 77.0498 121.941 77.0407 122.055 77.0225C122.173 76.9997 122.262 76.9814 122.322 76.9678L122.328 78C122.228 78.0319 122.096 78.0615 121.932 78.0889C121.772 78.1208 121.579 78.1367 121.351 78.1367C121.041 78.1367 120.756 78.0752 120.496 77.9521C120.237 77.8291 120.029 77.624 119.874 77.3369C119.724 77.0452 119.649 76.6533 119.649 76.1611V68.8057ZM124.755 67.5V78H123.491V67.5H124.755ZM124.455 74.0215L123.928 74.001C123.933 73.4951 124.008 73.028 124.154 72.5996C124.3 72.1667 124.505 71.7907 124.769 71.4717C125.033 71.1527 125.348 70.9066 125.712 70.7334C126.082 70.5557 126.489 70.4668 126.936 70.4668C127.301 70.4668 127.629 70.5169 127.92 70.6172C128.212 70.7129 128.461 70.8678 128.666 71.082C128.875 71.2962 129.035 71.5742 129.144 71.916C129.253 72.2533 129.308 72.6657 129.308 73.1533V78H128.037V73.1396C128.037 72.7523 127.98 72.4424 127.866 72.21C127.752 71.973 127.586 71.8021 127.367 71.6973C127.148 71.5879 126.879 71.5332 126.56 71.5332C126.246 71.5332 125.959 71.5993 125.699 71.7314C125.444 71.8636 125.223 72.0459 125.036 72.2783C124.853 72.5107 124.71 72.7773 124.605 73.0781C124.505 73.3743 124.455 73.6888 124.455 74.0215ZM133.984 78.1367C133.469 78.1367 133.002 78.0501 132.583 77.877C132.168 77.6992 131.81 77.4508 131.51 77.1318C131.213 76.8128 130.986 76.4346 130.826 75.9971C130.666 75.5596 130.587 75.0811 130.587 74.5615V74.2744C130.587 73.6729 130.676 73.1374 130.853 72.668C131.031 72.194 131.273 71.793 131.578 71.4648C131.883 71.1367 132.23 70.8883 132.617 70.7197C133.004 70.5511 133.405 70.4668 133.82 70.4668C134.349 70.4668 134.805 70.5579 135.187 70.7402C135.575 70.9225 135.891 71.1777 136.138 71.5059C136.384 71.8294 136.566 72.2122 136.684 72.6543C136.803 73.0918 136.862 73.5703 136.862 74.0898V74.6572H131.339V73.625H135.597V73.5293C135.579 73.2012 135.511 72.8822 135.392 72.5723C135.278 72.2624 135.096 72.0072 134.846 71.8066C134.595 71.6061 134.253 71.5059 133.82 71.5059C133.533 71.5059 133.269 71.5674 133.027 71.6904C132.786 71.8089 132.578 71.9867 132.405 72.2236C132.232 72.4606 132.097 72.75 132.002 73.0918C131.906 73.4336 131.858 73.8278 131.858 74.2744V74.5615C131.858 74.9124 131.906 75.2428 132.002 75.5527C132.102 75.8581 132.246 76.127 132.432 76.3594C132.624 76.5918 132.854 76.7741 133.123 76.9062C133.396 77.0384 133.706 77.1045 134.053 77.1045C134.499 77.1045 134.877 77.0133 135.187 76.8311C135.497 76.6488 135.768 76.4049 136.001 76.0996L136.766 76.708C136.607 76.9495 136.404 77.1797 136.158 77.3984C135.912 77.6172 135.609 77.7949 135.249 77.9316C134.893 78.0684 134.472 78.1367 133.984 78.1367ZM145.1 74.0967H142.441V73.0234H145.1C145.615 73.0234 146.032 72.9414 146.351 72.7773C146.67 72.6133 146.902 72.3854 147.048 72.0938C147.199 71.8021 147.274 71.4694 147.274 71.0957C147.274 70.7539 147.199 70.4326 147.048 70.1318C146.902 69.8311 146.67 69.5895 146.351 69.4072C146.032 69.2204 145.615 69.127 145.1 69.127H142.748V78H141.429V68.0469H145.1C145.852 68.0469 146.488 68.1768 147.007 68.4365C147.527 68.6963 147.921 69.0563 148.19 69.5166C148.459 69.9723 148.593 70.4941 148.593 71.082C148.593 71.7201 148.459 72.2646 148.19 72.7158C147.921 73.167 147.527 73.5111 147.007 73.748C146.488 73.9805 145.852 74.0967 145.1 74.0967ZM151.048 71.7656V78H149.783V70.6035H151.013L151.048 71.7656ZM153.358 70.5625L153.351 71.7383C153.246 71.7155 153.146 71.7018 153.05 71.6973C152.959 71.6882 152.854 71.6836 152.736 71.6836C152.444 71.6836 152.187 71.7292 151.964 71.8203C151.74 71.9115 151.551 72.0391 151.396 72.2031C151.241 72.3672 151.118 72.5632 151.027 72.791C150.94 73.0143 150.883 73.2604 150.856 73.5293L150.501 73.7344C150.501 73.2878 150.544 72.8685 150.631 72.4766C150.722 72.0846 150.861 71.7383 151.048 71.4375C151.234 71.1322 151.471 70.8952 151.758 70.7266C152.05 70.5534 152.396 70.4668 152.798 70.4668C152.889 70.4668 152.993 70.4782 153.112 70.501C153.23 70.5192 153.312 70.5397 153.358 70.5625ZM153.768 74.3838V74.2266C153.768 73.6934 153.846 73.1989 154.001 72.7432C154.156 72.2829 154.379 71.8841 154.671 71.5469C154.962 71.2051 155.316 70.9408 155.73 70.7539C156.145 70.5625 156.61 70.4668 157.125 70.4668C157.644 70.4668 158.112 70.5625 158.526 70.7539C158.946 70.9408 159.301 71.2051 159.593 71.5469C159.889 71.8841 160.115 72.2829 160.269 72.7432C160.424 73.1989 160.502 73.6934 160.502 74.2266V74.3838C160.502 74.917 160.424 75.4115 160.269 75.8672C160.115 76.3229 159.889 76.7217 159.593 77.0635C159.301 77.4007 158.948 77.665 158.533 77.8564C158.123 78.0433 157.658 78.1367 157.139 78.1367C156.619 78.1367 156.152 78.0433 155.737 77.8564C155.323 77.665 154.967 77.4007 154.671 77.0635C154.379 76.7217 154.156 76.3229 154.001 75.8672C153.846 75.4115 153.768 74.917 153.768 74.3838ZM155.033 74.2266V74.3838C155.033 74.7529 155.076 75.1016 155.163 75.4297C155.25 75.7533 155.379 76.0404 155.553 76.291C155.73 76.5417 155.951 76.7399 156.216 76.8857C156.48 77.027 156.788 77.0977 157.139 77.0977C157.485 77.0977 157.788 77.027 158.048 76.8857C158.312 76.7399 158.531 76.5417 158.704 76.291C158.877 76.0404 159.007 75.7533 159.094 75.4297C159.185 75.1016 159.23 74.7529 159.23 74.3838V74.2266C159.23 73.862 159.185 73.5179 159.094 73.1943C159.007 72.8662 158.875 72.5768 158.697 72.3262C158.524 72.071 158.305 71.8704 158.041 71.7246C157.781 71.5788 157.476 71.5059 157.125 71.5059C156.779 71.5059 156.473 71.5788 156.209 71.7246C155.949 71.8704 155.73 72.071 155.553 72.3262C155.379 72.5768 155.25 72.8662 155.163 73.1943C155.076 73.5179 155.033 73.862 155.033 74.2266ZM166.463 76.5645V67.5H167.735V78H166.572L166.463 76.5645ZM161.487 74.3838V74.2402C161.487 73.6751 161.555 73.1624 161.692 72.7021C161.833 72.2373 162.031 71.8385 162.286 71.5059C162.546 71.1732 162.854 70.918 163.209 70.7402C163.569 70.5579 163.97 70.4668 164.412 70.4668C164.877 70.4668 165.283 70.5488 165.629 70.7129C165.98 70.8724 166.276 71.1071 166.518 71.417C166.764 71.7223 166.958 72.0915 167.099 72.5244C167.24 72.9574 167.338 73.4473 167.393 73.9941V74.623C167.343 75.1654 167.245 75.653 167.099 76.0859C166.958 76.5189 166.764 76.888 166.518 77.1934C166.276 77.4987 165.98 77.7334 165.629 77.8975C165.278 78.057 164.868 78.1367 164.399 78.1367C163.966 78.1367 163.569 78.0433 163.209 77.8564C162.854 77.6696 162.546 77.4076 162.286 77.0703C162.031 76.7331 161.833 76.3366 161.692 75.8809C161.555 75.4206 161.487 74.9215 161.487 74.3838ZM162.758 74.2402V74.3838C162.758 74.7529 162.794 75.0993 162.867 75.4229C162.945 75.7464 163.063 76.0312 163.223 76.2773C163.382 76.5234 163.585 76.7171 163.831 76.8584C164.077 76.9951 164.371 77.0635 164.713 77.0635C165.132 77.0635 165.476 76.9746 165.745 76.7969C166.019 76.6191 166.237 76.3844 166.402 76.0928C166.566 75.8011 166.693 75.4844 166.784 75.1426V73.4951C166.73 73.2445 166.65 73.0029 166.545 72.7705C166.445 72.5335 166.313 72.3239 166.149 72.1416C165.989 71.9548 165.791 71.8066 165.554 71.6973C165.321 71.5879 165.046 71.5332 164.727 71.5332C164.38 71.5332 164.082 71.6061 163.831 71.752C163.585 71.8932 163.382 72.0892 163.223 72.3398C163.063 72.5859 162.945 72.873 162.867 73.2012C162.794 73.5247 162.758 73.8711 162.758 74.2402ZM173.942 76.291V70.6035H175.213V78H174.003L173.942 76.291ZM174.181 74.7324L174.707 74.7188C174.707 75.2109 174.655 75.6667 174.55 76.0859C174.45 76.5007 174.286 76.8607 174.058 77.166C173.83 77.4714 173.532 77.7106 173.163 77.8838C172.793 78.0524 172.345 78.1367 171.816 78.1367C171.456 78.1367 171.125 78.0843 170.825 77.9795C170.528 77.8747 170.273 77.7129 170.059 77.4941C169.845 77.2754 169.679 76.9906 169.56 76.6396C169.446 76.2887 169.389 75.8672 169.389 75.375V70.6035H170.654V75.3887C170.654 75.7214 170.69 75.9971 170.763 76.2158C170.841 76.43 170.943 76.6009 171.071 76.7285C171.203 76.8516 171.349 76.9382 171.508 76.9883C171.672 77.0384 171.841 77.0635 172.014 77.0635C172.552 77.0635 172.978 76.9609 173.292 76.7559C173.607 76.5462 173.832 76.266 173.969 75.915C174.11 75.5596 174.181 75.1654 174.181 74.7324ZM179.814 77.0977C180.115 77.0977 180.393 77.0361 180.648 76.9131C180.903 76.79 181.113 76.6214 181.277 76.4072C181.441 76.1885 181.535 75.9401 181.557 75.6621H182.76C182.738 76.0996 182.59 76.5075 182.316 76.8857C182.047 77.2594 181.694 77.5625 181.257 77.7949C180.819 78.0228 180.338 78.1367 179.814 78.1367C179.258 78.1367 178.773 78.0387 178.358 77.8428C177.948 77.6468 177.606 77.3779 177.333 77.0361C177.064 76.6943 176.861 76.3024 176.724 75.8604C176.592 75.4137 176.526 74.9421 176.526 74.4453V74.1582C176.526 73.6615 176.592 73.1921 176.724 72.75C176.861 72.3034 177.064 71.9092 177.333 71.5674C177.606 71.2256 177.948 70.9567 178.358 70.7607C178.773 70.5648 179.258 70.4668 179.814 70.4668C180.393 70.4668 180.899 70.5853 181.332 70.8223C181.765 71.0547 182.104 71.3737 182.35 71.7793C182.601 72.1803 182.738 72.6361 182.76 73.1465H181.557C181.535 72.8411 181.448 72.5654 181.298 72.3193C181.152 72.0732 180.951 71.8773 180.696 71.7314C180.445 71.5811 180.151 71.5059 179.814 71.5059C179.427 71.5059 179.101 71.5833 178.837 71.7383C178.577 71.8887 178.37 72.0938 178.215 72.3535C178.064 72.6087 177.955 72.8936 177.886 73.208C177.823 73.5179 177.791 73.8346 177.791 74.1582V74.4453C177.791 74.7689 177.823 75.0879 177.886 75.4023C177.95 75.7168 178.057 76.0016 178.208 76.2568C178.363 76.512 178.57 76.7171 178.83 76.8721C179.094 77.0225 179.422 77.0977 179.814 77.0977ZM186.992 70.6035V71.5742H182.993V70.6035H186.992ZM184.347 68.8057H185.611V76.168C185.611 76.4186 185.65 76.6077 185.728 76.7354C185.805 76.863 185.905 76.9473 186.028 76.9883C186.151 77.0293 186.284 77.0498 186.425 77.0498C186.53 77.0498 186.639 77.0407 186.753 77.0225C186.871 76.9997 186.96 76.9814 187.02 76.9678L187.026 78C186.926 78.0319 186.794 78.0615 186.63 78.0889C186.47 78.1208 186.277 78.1367 186.049 78.1367C185.739 78.1367 185.454 78.0752 185.194 77.9521C184.935 77.8291 184.727 77.624 184.572 77.3369C184.422 77.0452 184.347 76.6533 184.347 76.1611V68.8057Z" fill="#323C47"/>
<path opacity="0.696388" d="M50.9155 39.1367V47H49.9219V40.3774L47.9185 41.1079V40.2109L50.7598 39.1367H50.9155ZM56.7875 39.1367V47H55.7938V40.3774L53.7904 41.1079V40.2109L56.6317 39.1367H56.7875ZM59.4583 46.4736C59.4583 46.3053 59.5102 46.1639 59.6141 46.0493C59.7215 45.9312 59.8755 45.8721 60.076 45.8721C60.2765 45.8721 60.4287 45.9312 60.5325 46.0493C60.6399 46.1639 60.6937 46.3053 60.6937 46.4736C60.6937 46.6383 60.6399 46.778 60.5325 46.8926C60.4287 47.0072 60.2765 47.0645 60.076 47.0645C59.8755 47.0645 59.7215 47.0072 59.6141 46.8926C59.5102 46.778 59.4583 46.6383 59.4583 46.4736ZM59.4637 41.731C59.4637 41.5627 59.5156 41.4212 59.6194 41.3066C59.7269 41.1885 59.8808 41.1294 60.0813 41.1294C60.2819 41.1294 60.4341 41.1885 60.5379 41.3066C60.6453 41.4212 60.699 41.5627 60.699 41.731C60.699 41.8957 60.6453 42.0353 60.5379 42.1499C60.4341 42.2645 60.2819 42.3218 60.0813 42.3218C59.8808 42.3218 59.7269 42.2645 59.6194 42.1499C59.5156 42.0353 59.4637 41.8957 59.4637 41.731ZM66.6516 42.4668V43.6592C66.6516 44.3001 66.5943 44.8408 66.4797 45.2812C66.3651 45.7217 66.2004 46.0762 65.9855 46.3447C65.7707 46.6133 65.5111 46.8084 65.2067 46.9302C64.906 47.0483 64.5658 47.1074 64.1862 47.1074C63.8855 47.1074 63.6079 47.0698 63.3537 46.9946C63.0995 46.9194 62.8703 46.7995 62.6662 46.6348C62.4657 46.4665 62.2938 46.248 62.1506 45.9795C62.0074 45.7109 61.8981 45.3851 61.823 45.002C61.7478 44.6188 61.7102 44.1712 61.7102 43.6592V42.4668C61.7102 41.8258 61.7675 41.2887 61.882 40.8555C62.0002 40.4222 62.1667 40.0749 62.3815 39.8135C62.5964 39.5485 62.8542 39.3587 63.155 39.2441C63.4593 39.1296 63.7995 39.0723 64.1755 39.0723C64.4799 39.0723 64.7592 39.1099 65.0134 39.1851C65.2712 39.2567 65.5004 39.373 65.7009 39.5342C65.9014 39.6917 66.0715 39.903 66.2111 40.168C66.3544 40.4294 66.4636 40.7498 66.5388 41.1294C66.614 41.509 66.6516 41.9548 66.6516 42.4668ZM65.6525 43.8203V42.3003C65.6525 41.9494 65.6311 41.6414 65.5881 41.3765C65.5487 41.1079 65.4896 40.8787 65.4108 40.689C65.3321 40.4992 65.2318 40.3452 65.1101 40.2271C64.9919 40.1089 64.854 40.0229 64.6965 39.9692C64.5425 39.9119 64.3689 39.8833 64.1755 39.8833C63.9392 39.8833 63.7297 39.9281 63.5471 40.0176C63.3645 40.1035 63.2105 40.2414 63.0852 40.4312C62.9634 40.6209 62.8703 40.8698 62.8059 41.1777C62.7414 41.4857 62.7092 41.8599 62.7092 42.3003V43.8203C62.7092 44.1712 62.7289 44.481 62.7683 44.7495C62.8112 45.0181 62.8739 45.2508 62.9563 45.4478C63.0386 45.6411 63.1389 45.8005 63.257 45.9258C63.3752 46.0511 63.5113 46.1442 63.6652 46.2051C63.8228 46.2624 63.9965 46.291 64.1862 46.291C64.4297 46.291 64.6428 46.2445 64.8254 46.1514C65.008 46.0583 65.1602 45.9132 65.2819 45.7163C65.4073 45.5158 65.5004 45.2598 65.5612 44.9482C65.6221 44.6331 65.6525 44.2572 65.6525 43.8203ZM72.5235 42.4668V43.6592C72.5235 44.3001 72.4662 44.8408 72.3517 45.2812C72.2371 45.7217 72.0724 46.0762 71.8575 46.3447C71.6427 46.6133 71.3831 46.8084 71.0787 46.9302C70.7779 47.0483 70.4378 47.1074 70.0582 47.1074C69.7574 47.1074 69.4799 47.0698 69.2257 46.9946C68.9715 46.9194 68.7423 46.7995 68.5382 46.6348C68.3377 46.4665 68.1658 46.248 68.0226 45.9795C67.8793 45.7109 67.7701 45.3851 67.6949 45.002C67.6197 44.6188 67.5821 44.1712 67.5821 43.6592V42.4668C67.5821 41.8258 67.6394 41.2887 67.754 40.8555C67.8722 40.4222 68.0387 40.0749 68.2535 39.8135C68.4684 39.5485 68.7262 39.3587 69.027 39.2441C69.3313 39.1296 69.6715 39.0723 70.0475 39.0723C70.3518 39.0723 70.6311 39.1099 70.8854 39.1851C71.1432 39.2567 71.3723 39.373 71.5729 39.5342C71.7734 39.6917 71.9435 39.903 72.0831 40.168C72.2263 40.4294 72.3356 40.7498 72.4107 41.1294C72.4859 41.509 72.5235 41.9548 72.5235 42.4668ZM71.5245 43.8203V42.3003C71.5245 41.9494 71.503 41.6414 71.4601 41.3765C71.4207 41.1079 71.3616 40.8787 71.2828 40.689C71.204 40.4992 71.1038 40.3452 70.982 40.2271C70.8639 40.1089 70.726 40.0229 70.5685 39.9692C70.4145 39.9119 70.2408 39.8833 70.0475 39.8833C69.8111 39.8833 69.6017 39.9281 69.419 40.0176C69.2364 40.1035 69.0825 40.2414 68.9571 40.4312C68.8354 40.6209 68.7423 40.8698 68.6778 41.1777C68.6134 41.4857 68.5812 41.8599 68.5812 42.3003V43.8203C68.5812 44.1712 68.6008 44.481 68.6402 44.7495C68.6832 45.0181 68.7459 45.2508 68.8282 45.4478C68.9106 45.6411 69.0108 45.8005 69.129 45.9258C69.2472 46.0511 69.3832 46.1442 69.5372 46.2051C69.6948 46.2624 69.8684 46.291 70.0582 46.291C70.3017 46.291 70.5147 46.2445 70.6974 46.1514C70.88 46.0583 71.0322 45.9132 71.1539 45.7163C71.2792 45.5158 71.3723 45.2598 71.4332 44.9482C71.4941 44.6331 71.5245 44.2572 71.5245 43.8203ZM78.7065 40.5205L76.3529 47H75.391L78.101 39.8906H78.7211L78.7065 40.5205ZM80.6791 47L78.3207 40.5205L78.3061 39.8906H78.9262L81.6459 47H80.6791ZM80.557 44.3682V45.1396H76.5629V44.3682H80.557ZM82.5804 39.8906H83.4935L85.8226 45.6865L88.1468 39.8906H89.0648L86.1741 47H85.4612L82.5804 39.8906ZM82.2825 39.8906H83.0882L83.22 44.2266V47H82.2825V39.8906ZM88.5521 39.8906H89.3577V47H88.4202V44.2266L88.5521 39.8906ZM95.1105 43.2671V44.0835H92.4894V43.2671H95.1105ZM101.338 39.1367V47H100.345V40.3774L98.3412 41.1079V40.2109L101.183 39.1367H101.338ZM107.21 39.1367V47H106.217V40.3774L104.213 41.1079V40.2109L107.055 39.1367H107.21ZM109.881 46.4736C109.881 46.3053 109.933 46.1639 110.037 46.0493C110.144 45.9312 110.298 45.8721 110.499 45.8721C110.699 45.8721 110.851 45.9312 110.955 46.0493C111.063 46.1639 111.116 46.3053 111.116 46.4736C111.116 46.6383 111.063 46.778 110.955 46.8926C110.851 47.0072 110.699 47.0645 110.499 47.0645C110.298 47.0645 110.144 47.0072 110.037 46.8926C109.933 46.778 109.881 46.6383 109.881 46.4736ZM109.886 41.731C109.886 41.5627 109.938 41.4212 110.042 41.3066C110.15 41.1885 110.304 41.1294 110.504 41.1294C110.705 41.1294 110.857 41.1885 110.961 41.3066C111.068 41.4212 111.122 41.5627 111.122 41.731C111.122 41.8957 111.068 42.0353 110.961 42.1499C110.857 42.2645 110.705 42.3218 110.504 42.3218C110.304 42.3218 110.15 42.2645 110.042 42.1499C109.938 42.0353 109.886 41.8957 109.886 41.731ZM113.615 42.6011H114.324C114.672 42.6011 114.958 42.5438 115.184 42.4292C115.413 42.311 115.583 42.1517 115.694 41.9512C115.809 41.7471 115.866 41.5179 115.866 41.2637C115.866 40.9629 115.816 40.7104 115.715 40.5063C115.615 40.3022 115.465 40.1483 115.264 40.0444C115.064 39.9406 114.81 39.8887 114.502 39.8887C114.222 39.8887 113.975 39.9442 113.76 40.0552C113.549 40.1626 113.383 40.3166 113.261 40.5171C113.143 40.7176 113.084 40.9539 113.084 41.2261H112.09C112.09 40.8286 112.19 40.467 112.391 40.1411C112.591 39.8153 112.872 39.5557 113.234 39.3623C113.599 39.1689 114.022 39.0723 114.502 39.0723C114.974 39.0723 115.388 39.1564 115.742 39.3247C116.097 39.4894 116.373 39.7365 116.569 40.0659C116.766 40.3918 116.865 40.7982 116.865 41.2852C116.865 41.4821 116.818 41.6934 116.725 41.9189C116.636 42.141 116.494 42.3486 116.301 42.542C116.111 42.7354 115.864 42.8947 115.56 43.02C115.255 43.1418 114.89 43.2026 114.464 43.2026H113.615V42.6011ZM113.615 43.4175V42.8213H114.464C114.962 42.8213 115.373 42.8804 115.699 42.9985C116.025 43.1167 116.281 43.2743 116.467 43.4712C116.657 43.6681 116.79 43.8848 116.865 44.1211C116.944 44.3538 116.983 44.5866 116.983 44.8193C116.983 45.1846 116.92 45.5086 116.795 45.7915C116.673 46.0744 116.5 46.3143 116.274 46.5112C116.052 46.7082 115.791 46.8568 115.49 46.957C115.189 47.0573 114.861 47.1074 114.507 47.1074C114.167 47.1074 113.846 47.0591 113.546 46.9624C113.248 46.8657 112.985 46.7261 112.756 46.5435C112.527 46.3573 112.348 46.1299 112.219 45.8613C112.09 45.5892 112.026 45.2795 112.026 44.9321H113.019C113.019 45.2043 113.078 45.4424 113.196 45.6465C113.318 45.8506 113.49 46.0099 113.712 46.1245C113.938 46.2355 114.203 46.291 114.507 46.291C114.811 46.291 115.073 46.2391 115.291 46.1353C115.513 46.0278 115.683 45.8667 115.801 45.6519C115.923 45.437 115.984 45.1667 115.984 44.8408C115.984 44.515 115.916 44.2482 115.78 44.0405C115.644 43.8293 115.45 43.6735 115.2 43.5732C114.953 43.4694 114.661 43.4175 114.324 43.4175H113.615ZM122.946 42.4668V43.6592C122.946 44.3001 122.889 44.8408 122.774 45.2812C122.66 45.7217 122.495 46.0762 122.28 46.3447C122.065 46.6133 121.806 46.8084 121.501 46.9302C121.201 47.0483 120.861 47.1074 120.481 47.1074C120.18 47.1074 119.903 47.0698 119.648 46.9946C119.394 46.9194 119.165 46.7995 118.961 46.6348C118.76 46.4665 118.589 46.248 118.445 45.9795C118.302 45.7109 118.193 45.3851 118.118 45.002C118.042 44.6188 118.005 44.1712 118.005 43.6592V42.4668C118.005 41.8258 118.062 41.2887 118.177 40.8555C118.295 40.4222 118.461 40.0749 118.676 39.8135C118.891 39.5485 119.149 39.3587 119.45 39.2441C119.754 39.1296 120.094 39.0723 120.47 39.0723C120.775 39.0723 121.054 39.1099 121.308 39.1851C121.566 39.2567 121.795 39.373 121.996 39.5342C122.196 39.6917 122.366 39.903 122.506 40.168C122.649 40.4294 122.758 40.7498 122.834 41.1294C122.909 41.509 122.946 41.9548 122.946 42.4668ZM121.947 43.8203V42.3003C121.947 41.9494 121.926 41.6414 121.883 41.3765C121.843 41.1079 121.784 40.8787 121.706 40.689C121.627 40.4992 121.527 40.3452 121.405 40.2271C121.287 40.1089 121.149 40.0229 120.991 39.9692C120.837 39.9119 120.664 39.8833 120.47 39.8833C120.234 39.8833 120.024 39.9281 119.842 40.0176C119.659 40.1035 119.505 40.2414 119.38 40.4312C119.258 40.6209 119.165 40.8698 119.101 41.1777C119.036 41.4857 119.004 41.8599 119.004 42.3003V43.8203C119.004 44.1712 119.024 44.481 119.063 44.7495C119.106 45.0181 119.169 45.2508 119.251 45.4478C119.333 45.6411 119.434 45.8005 119.552 45.9258C119.67 46.0511 119.806 46.1442 119.96 46.2051C120.118 46.2624 120.291 46.291 120.481 46.291C120.724 46.291 120.938 46.2445 121.12 46.1514C121.303 46.0583 121.455 45.9132 121.577 45.7163C121.702 45.5158 121.795 45.2598 121.856 44.9482C121.917 44.6331 121.947 44.2572 121.947 43.8203ZM129.129 40.5205L126.776 47H125.814L128.524 39.8906H129.144L129.129 40.5205ZM131.102 47L128.743 40.5205L128.729 39.8906H129.349L132.069 47H131.102ZM130.98 44.3682V45.1396H126.986V44.3682H130.98ZM133.003 39.8906H133.916L136.245 45.6865L138.57 39.8906H139.488L136.597 47H135.884L133.003 39.8906ZM132.705 39.8906H133.511L133.643 44.2266V47H132.705V39.8906ZM138.975 39.8906H139.78V47H138.843V44.2266L138.975 39.8906Z" fill="#868686"/>
<path opacity="0.696388" d="M213.56 119.852V127H212.656V120.979L210.835 121.644V120.828L213.418 119.852H213.56ZM220.392 122.879V123.963C220.392 124.546 220.34 125.037 220.236 125.438C220.131 125.838 219.982 126.16 219.786 126.404C219.591 126.648 219.355 126.826 219.078 126.937C218.805 127.044 218.496 127.098 218.151 127.098C217.877 127.098 217.625 127.063 217.394 126.995C217.163 126.927 216.954 126.818 216.769 126.668C216.587 126.515 216.43 126.316 216.3 126.072C216.17 125.828 216.071 125.532 216.002 125.184C215.934 124.835 215.9 124.428 215.9 123.963V122.879C215.9 122.296 215.952 121.808 216.056 121.414C216.163 121.02 216.315 120.704 216.51 120.467C216.705 120.226 216.94 120.053 217.213 119.949C217.49 119.845 217.799 119.793 218.141 119.793C218.418 119.793 218.671 119.827 218.903 119.896C219.137 119.961 219.345 120.066 219.528 120.213C219.71 120.356 219.865 120.548 219.991 120.789C220.122 121.027 220.221 121.318 220.289 121.663C220.358 122.008 220.392 122.413 220.392 122.879ZM219.484 124.109V122.728C219.484 122.409 219.464 122.129 219.425 121.888C219.389 121.644 219.336 121.435 219.264 121.263C219.192 121.09 219.101 120.95 218.991 120.843C218.883 120.735 218.758 120.657 218.615 120.608C218.475 120.556 218.317 120.53 218.141 120.53C217.926 120.53 217.736 120.571 217.57 120.652C217.404 120.73 217.264 120.856 217.15 121.028C217.039 121.201 216.954 121.427 216.896 121.707C216.837 121.987 216.808 122.327 216.808 122.728V124.109C216.808 124.428 216.826 124.71 216.862 124.954C216.901 125.198 216.958 125.41 217.032 125.589C217.107 125.765 217.199 125.91 217.306 126.023C217.413 126.137 217.537 126.222 217.677 126.277C217.82 126.329 217.978 126.355 218.151 126.355C218.372 126.355 218.566 126.313 218.732 126.229C218.898 126.144 219.036 126.012 219.147 125.833C219.261 125.651 219.345 125.418 219.401 125.135C219.456 124.848 219.484 124.507 219.484 124.109ZM226.674 126.097V123.377C226.674 123.169 226.631 122.988 226.547 122.835C226.465 122.679 226.342 122.558 226.176 122.474C226.01 122.389 225.805 122.347 225.56 122.347C225.333 122.347 225.132 122.386 224.96 122.464C224.791 122.542 224.657 122.645 224.559 122.771C224.465 122.898 224.418 123.035 224.418 123.182H223.514C223.514 122.993 223.563 122.806 223.661 122.62C223.759 122.435 223.899 122.267 224.081 122.117C224.266 121.964 224.488 121.844 224.745 121.756C225.005 121.665 225.295 121.619 225.614 121.619C225.998 121.619 226.337 121.684 226.63 121.814C226.926 121.945 227.157 122.142 227.323 122.405C227.492 122.666 227.577 122.993 227.577 123.387V125.848C227.577 126.023 227.592 126.211 227.621 126.409C227.653 126.608 227.701 126.779 227.763 126.922V127H226.82C226.775 126.896 226.739 126.757 226.713 126.585C226.687 126.409 226.674 126.246 226.674 126.097ZM226.83 123.797L226.84 124.432H225.927C225.669 124.432 225.44 124.453 225.238 124.495C225.036 124.534 224.867 124.594 224.73 124.676C224.594 124.757 224.489 124.86 224.418 124.983C224.346 125.104 224.31 125.245 224.31 125.408C224.31 125.574 224.348 125.726 224.423 125.862C224.498 125.999 224.61 126.108 224.76 126.189C224.913 126.268 225.1 126.307 225.321 126.307C225.598 126.307 225.842 126.248 226.054 126.131C226.265 126.014 226.433 125.87 226.556 125.701C226.683 125.532 226.752 125.368 226.762 125.208L227.147 125.643C227.124 125.779 227.063 125.931 226.962 126.097C226.861 126.263 226.726 126.422 226.556 126.575C226.39 126.725 226.192 126.85 225.961 126.951C225.733 127.049 225.476 127.098 225.189 127.098C224.831 127.098 224.517 127.028 224.247 126.888C223.98 126.748 223.772 126.561 223.622 126.326C223.475 126.089 223.402 125.823 223.402 125.53C223.402 125.247 223.458 124.998 223.568 124.783C223.679 124.565 223.838 124.384 224.047 124.241C224.255 124.095 224.506 123.984 224.799 123.909C225.092 123.834 225.419 123.797 225.78 123.797H226.83ZM230.923 121.717V122.41H228.066V121.717H230.923ZM229.033 120.433H229.937V125.691C229.937 125.87 229.964 126.006 230.02 126.097C230.075 126.188 230.147 126.248 230.234 126.277C230.322 126.307 230.417 126.321 230.518 126.321C230.593 126.321 230.671 126.315 230.752 126.302C230.837 126.285 230.9 126.272 230.942 126.263L230.947 127C230.876 127.023 230.781 127.044 230.664 127.063C230.55 127.086 230.412 127.098 230.249 127.098C230.028 127.098 229.824 127.054 229.639 126.966C229.453 126.878 229.305 126.731 229.194 126.526C229.087 126.318 229.033 126.038 229.033 125.687V120.433ZM233.908 121.717V122.41H231.051V121.717H233.908ZM232.018 120.433H232.921V125.691C232.921 125.87 232.949 126.006 233.004 126.097C233.06 126.188 233.131 126.248 233.219 126.277C233.307 126.307 233.401 126.321 233.502 126.321C233.577 126.321 233.655 126.315 233.737 126.302C233.821 126.285 233.885 126.272 233.927 126.263L233.932 127C233.86 127.023 233.766 127.044 233.649 127.063C233.535 127.086 233.397 127.098 233.234 127.098C233.012 127.098 232.809 127.054 232.623 126.966C232.438 126.878 232.29 126.731 232.179 126.526C232.072 126.318 232.018 126.038 232.018 125.687V120.433ZM237.796 126.097V123.377C237.796 123.169 237.753 122.988 237.669 122.835C237.587 122.679 237.464 122.558 237.298 122.474C237.131 122.389 236.926 122.347 236.682 122.347C236.454 122.347 236.254 122.386 236.082 122.464C235.912 122.542 235.779 122.645 235.681 122.771C235.587 122.898 235.54 123.035 235.54 123.182H234.636C234.636 122.993 234.685 122.806 234.783 122.62C234.881 122.435 235.02 122.267 235.203 122.117C235.388 121.964 235.61 121.844 235.867 121.756C236.127 121.665 236.417 121.619 236.736 121.619C237.12 121.619 237.459 121.684 237.752 121.814C238.048 121.945 238.279 122.142 238.445 122.405C238.614 122.666 238.699 122.993 238.699 123.387V125.848C238.699 126.023 238.714 126.211 238.743 126.409C238.775 126.608 238.823 126.779 238.884 126.922V127H237.942C237.896 126.896 237.861 126.757 237.835 126.585C237.809 126.409 237.796 126.246 237.796 126.097ZM237.952 123.797L237.962 124.432H237.048C236.791 124.432 236.562 124.453 236.36 124.495C236.158 124.534 235.989 124.594 235.852 124.676C235.715 124.757 235.611 124.86 235.54 124.983C235.468 125.104 235.432 125.245 235.432 125.408C235.432 125.574 235.47 125.726 235.545 125.862C235.619 125.999 235.732 126.108 235.881 126.189C236.034 126.268 236.222 126.307 236.443 126.307C236.72 126.307 236.964 126.248 237.175 126.131C237.387 126.014 237.555 125.87 237.678 125.701C237.805 125.532 237.874 125.368 237.883 125.208L238.269 125.643C238.246 125.779 238.185 125.931 238.084 126.097C237.983 126.263 237.848 126.422 237.678 126.575C237.512 126.725 237.314 126.85 237.083 126.951C236.855 127.049 236.598 127.098 236.311 127.098C235.953 127.098 235.639 127.028 235.369 126.888C235.102 126.748 234.894 126.561 234.744 126.326C234.597 126.089 234.524 125.823 234.524 125.53C234.524 125.247 234.579 124.998 234.69 124.783C234.801 124.565 234.96 124.384 235.169 124.241C235.377 124.095 235.628 123.984 235.921 123.909C236.214 123.834 236.541 123.797 236.902 123.797H237.952ZM241.947 126.355C242.162 126.355 242.361 126.312 242.543 126.224C242.725 126.136 242.875 126.015 242.992 125.862C243.109 125.706 243.176 125.529 243.192 125.33H244.052C244.035 125.643 243.93 125.934 243.734 126.204C243.542 126.471 243.29 126.688 242.977 126.854C242.665 127.016 242.322 127.098 241.947 127.098C241.55 127.098 241.203 127.028 240.907 126.888C240.614 126.748 240.37 126.556 240.175 126.312C239.983 126.067 239.838 125.787 239.74 125.472C239.646 125.153 239.599 124.816 239.599 124.461V124.256C239.599 123.901 239.646 123.566 239.74 123.25C239.838 122.931 239.983 122.649 240.175 122.405C240.37 122.161 240.614 121.969 240.907 121.829C241.203 121.689 241.55 121.619 241.947 121.619C242.361 121.619 242.722 121.704 243.031 121.873C243.34 122.039 243.583 122.267 243.759 122.557C243.938 122.843 244.035 123.169 244.052 123.533H243.192C243.176 123.315 243.114 123.118 243.007 122.942C242.903 122.767 242.759 122.627 242.577 122.522C242.398 122.415 242.188 122.361 241.947 122.361C241.67 122.361 241.438 122.417 241.249 122.527C241.063 122.635 240.915 122.781 240.805 122.967C240.697 123.149 240.619 123.353 240.57 123.577C240.525 123.799 240.502 124.025 240.502 124.256V124.461C240.502 124.692 240.525 124.92 240.57 125.145C240.616 125.369 240.692 125.573 240.8 125.755C240.91 125.937 241.059 126.084 241.244 126.194C241.433 126.302 241.667 126.355 241.947 126.355ZM245.684 119.5V127H244.78V119.5H245.684ZM245.469 124.158L245.093 124.144C245.096 123.782 245.15 123.449 245.254 123.143C245.358 122.833 245.505 122.565 245.694 122.337C245.882 122.109 246.107 121.933 246.367 121.81C246.631 121.683 246.922 121.619 247.241 121.619C247.502 121.619 247.736 121.655 247.945 121.727C248.153 121.795 248.33 121.906 248.477 122.059C248.626 122.212 248.74 122.41 248.819 122.654C248.897 122.895 248.936 123.19 248.936 123.538V127H248.028V123.528C248.028 123.252 247.987 123.03 247.905 122.864C247.824 122.695 247.705 122.573 247.549 122.498C247.393 122.42 247.201 122.381 246.973 122.381C246.748 122.381 246.543 122.428 246.358 122.522C246.175 122.617 246.017 122.747 245.884 122.913C245.754 123.079 245.651 123.27 245.576 123.484C245.505 123.696 245.469 123.921 245.469 124.158ZM252.194 127.098C251.826 127.098 251.492 127.036 251.193 126.912C250.897 126.785 250.641 126.608 250.426 126.38C250.215 126.152 250.052 125.882 249.938 125.569C249.824 125.257 249.767 124.915 249.767 124.544V124.339C249.767 123.909 249.831 123.527 249.957 123.191C250.084 122.853 250.257 122.566 250.475 122.332C250.693 122.098 250.941 121.92 251.217 121.8C251.494 121.679 251.78 121.619 252.077 121.619C252.454 121.619 252.78 121.684 253.053 121.814C253.33 121.945 253.556 122.127 253.732 122.361C253.908 122.592 254.038 122.866 254.123 123.182C254.207 123.494 254.249 123.836 254.249 124.207V124.612H250.304V123.875H253.346V123.807C253.333 123.572 253.284 123.344 253.2 123.123C253.118 122.902 252.988 122.719 252.809 122.576C252.63 122.433 252.386 122.361 252.077 122.361C251.872 122.361 251.683 122.405 251.51 122.493C251.338 122.578 251.19 122.705 251.066 122.874C250.942 123.043 250.846 123.25 250.778 123.494C250.709 123.738 250.675 124.02 250.675 124.339V124.544C250.675 124.795 250.709 125.031 250.778 125.252C250.849 125.47 250.952 125.662 251.085 125.828C251.222 125.994 251.387 126.124 251.579 126.219C251.774 126.313 251.995 126.36 252.243 126.36C252.562 126.36 252.832 126.295 253.053 126.165C253.275 126.035 253.468 125.861 253.634 125.643L254.181 126.077C254.067 126.25 253.922 126.414 253.747 126.57C253.571 126.727 253.354 126.854 253.097 126.951C252.843 127.049 252.542 127.098 252.194 127.098ZM255.916 122.767V127H255.008V121.717H255.867L255.916 122.767ZM255.73 124.158L255.31 124.144C255.314 123.782 255.361 123.449 255.452 123.143C255.543 122.833 255.678 122.565 255.857 122.337C256.036 122.109 256.259 121.933 256.526 121.81C256.793 121.683 257.102 121.619 257.454 121.619C257.701 121.619 257.929 121.655 258.137 121.727C258.346 121.795 258.526 121.904 258.679 122.054C258.832 122.203 258.951 122.396 259.036 122.63C259.121 122.864 259.163 123.147 259.163 123.479V127H258.26V123.523C258.26 123.247 258.212 123.025 258.118 122.859C258.027 122.693 257.897 122.573 257.727 122.498C257.558 122.42 257.359 122.381 257.132 122.381C256.865 122.381 256.642 122.428 256.463 122.522C256.284 122.617 256.14 122.747 256.033 122.913C255.926 123.079 255.847 123.27 255.799 123.484C255.753 123.696 255.73 123.921 255.73 124.158ZM259.153 123.66L258.548 123.846C258.551 123.556 258.598 123.278 258.689 123.011C258.784 122.744 258.919 122.506 259.094 122.298C259.274 122.09 259.493 121.925 259.754 121.805C260.014 121.681 260.312 121.619 260.647 121.619C260.93 121.619 261.181 121.657 261.399 121.731C261.621 121.806 261.806 121.922 261.956 122.078C262.109 122.231 262.224 122.428 262.302 122.669C262.381 122.91 262.42 123.196 262.42 123.528V127H261.511V123.519C261.511 123.222 261.464 122.993 261.37 122.83C261.279 122.664 261.149 122.549 260.979 122.483C260.813 122.415 260.615 122.381 260.384 122.381C260.185 122.381 260.009 122.415 259.856 122.483C259.703 122.552 259.575 122.646 259.47 122.767C259.366 122.884 259.287 123.019 259.231 123.172C259.179 123.325 259.153 123.488 259.153 123.66ZM265.692 127.098C265.325 127.098 264.991 127.036 264.691 126.912C264.395 126.785 264.14 126.608 263.925 126.38C263.713 126.152 263.55 125.882 263.437 125.569C263.323 125.257 263.266 124.915 263.266 124.544V124.339C263.266 123.909 263.329 123.527 263.456 123.191C263.583 122.853 263.756 122.566 263.974 122.332C264.192 122.098 264.439 121.92 264.716 121.8C264.993 121.679 265.279 121.619 265.575 121.619C265.953 121.619 266.278 121.684 266.552 121.814C266.828 121.945 267.055 122.127 267.23 122.361C267.406 122.592 267.536 122.866 267.621 123.182C267.706 123.494 267.748 123.836 267.748 124.207V124.612H263.803V123.875H266.845V123.807C266.832 123.572 266.783 123.344 266.698 123.123C266.617 122.902 266.487 122.719 266.308 122.576C266.129 122.433 265.884 122.361 265.575 122.361C265.37 122.361 265.181 122.405 265.009 122.493C264.836 122.578 264.688 122.705 264.564 122.874C264.441 123.043 264.345 123.25 264.276 123.494C264.208 123.738 264.174 124.02 264.174 124.339V124.544C264.174 124.795 264.208 125.031 264.276 125.252C264.348 125.47 264.451 125.662 264.584 125.828C264.721 125.994 264.885 126.124 265.077 126.219C265.272 126.313 265.494 126.36 265.741 126.36C266.06 126.36 266.33 126.295 266.552 126.165C266.773 126.035 266.967 125.861 267.133 125.643L267.68 126.077C267.566 126.25 267.421 126.414 267.245 126.57C267.069 126.727 266.853 126.854 266.596 126.951C266.342 127.049 266.041 127.098 265.692 127.098ZM269.419 122.845V127H268.516V121.717H269.37L269.419 122.845ZM269.204 124.158L268.828 124.144C268.832 123.782 268.885 123.449 268.99 123.143C269.094 122.833 269.24 122.565 269.429 122.337C269.618 122.109 269.842 121.933 270.103 121.81C270.366 121.683 270.658 121.619 270.977 121.619C271.237 121.619 271.472 121.655 271.68 121.727C271.888 121.795 272.066 121.906 272.212 122.059C272.362 122.212 272.476 122.41 272.554 122.654C272.632 122.895 272.671 123.19 272.671 123.538V127H271.763V123.528C271.763 123.252 271.722 123.03 271.641 122.864C271.56 122.695 271.441 122.573 271.284 122.498C271.128 122.42 270.936 122.381 270.708 122.381C270.484 122.381 270.279 122.428 270.093 122.522C269.911 122.617 269.753 122.747 269.619 122.913C269.489 123.079 269.387 123.27 269.312 123.484C269.24 123.696 269.204 123.921 269.204 124.158ZM275.968 121.717V122.41H273.112V121.717H275.968ZM274.079 120.433H274.982V125.691C274.982 125.87 275.01 126.006 275.065 126.097C275.12 126.188 275.192 126.248 275.28 126.277C275.368 126.307 275.462 126.321 275.563 126.321C275.638 126.321 275.716 126.315 275.797 126.302C275.882 126.285 275.946 126.272 275.988 126.263L275.993 127C275.921 127.023 275.827 127.044 275.71 127.063C275.596 127.086 275.457 127.098 275.294 127.098C275.073 127.098 274.87 127.054 274.684 126.966C274.499 126.878 274.35 126.731 274.24 126.526C274.132 126.318 274.079 126.038 274.079 125.687V120.433ZM279.817 125.599C279.817 125.468 279.788 125.348 279.729 125.237C279.674 125.123 279.558 125.021 279.383 124.93C279.21 124.835 278.95 124.754 278.601 124.686C278.308 124.624 278.043 124.55 277.805 124.466C277.571 124.381 277.371 124.279 277.205 124.158C277.042 124.038 276.917 123.896 276.829 123.733C276.741 123.571 276.697 123.38 276.697 123.162C276.697 122.954 276.743 122.757 276.834 122.571C276.928 122.386 277.06 122.221 277.229 122.078C277.402 121.935 277.609 121.823 277.849 121.741C278.09 121.66 278.359 121.619 278.655 121.619C279.078 121.619 279.44 121.694 279.739 121.844C280.039 121.993 280.268 122.194 280.428 122.444C280.587 122.692 280.667 122.967 280.667 123.27H279.764C279.764 123.123 279.72 122.981 279.632 122.845C279.547 122.705 279.422 122.589 279.256 122.498C279.093 122.407 278.893 122.361 278.655 122.361C278.404 122.361 278.201 122.4 278.045 122.479C277.892 122.553 277.779 122.649 277.708 122.767C277.639 122.884 277.605 123.007 277.605 123.138C277.605 123.235 277.622 123.323 277.654 123.401C277.69 123.476 277.752 123.546 277.84 123.611C277.928 123.673 278.051 123.732 278.211 123.787C278.37 123.842 278.574 123.898 278.821 123.953C279.254 124.051 279.611 124.168 279.89 124.305C280.17 124.441 280.379 124.609 280.515 124.808C280.652 125.006 280.721 125.247 280.721 125.53C280.721 125.761 280.672 125.973 280.574 126.165C280.48 126.357 280.341 126.523 280.159 126.663C279.98 126.8 279.765 126.907 279.514 126.985C279.267 127.06 278.989 127.098 278.68 127.098C278.214 127.098 277.82 127.015 277.498 126.849C277.176 126.683 276.931 126.468 276.765 126.204C276.599 125.94 276.516 125.662 276.516 125.369H277.425C277.438 125.617 277.509 125.813 277.639 125.96C277.77 126.103 277.929 126.206 278.118 126.268C278.307 126.326 278.494 126.355 278.68 126.355C278.927 126.355 279.134 126.323 279.3 126.258C279.469 126.193 279.597 126.103 279.685 125.989C279.773 125.875 279.817 125.745 279.817 125.599Z" fill="#868686"/>
<path fill-rule="evenodd" clip-rule="evenodd" d="M204.999 125.515C204.988 126.889 203.874 128 202.5 128C201.126 128 200.012 126.889 200.001 125.515H200V121.132V120.505V119.879C200 118.841 200.839 118 201.875 118C202.91 118 203.75 118.841 203.75 119.879V120.505V121.132V123.328V124.117V125.515H203.748C203.737 126.198 203.184 126.748 202.5 126.748C201.816 126.748 201.263 126.198 201.252 125.515H201.25V124.889V124.117V123.328V122.384V121.648V120.938V120.505H201.875V121.112V121.757V123.072V123.749V124.417V124.889V125.515C201.875 125.861 202.155 126.141 202.5 126.141C202.845 126.141 203.125 125.861 203.125 125.515V124.417V123.749V123.072V122.384V121.277V121.132V120.505V119.879H203.124C203.124 119.872 203.125 119.866 203.125 119.859C203.125 119.167 202.565 118.607 201.875 118.607C201.185 118.607 200.625 119.167 200.625 119.859C200.625 119.866 200.626 119.872 200.626 119.879H200.625V120.505V121.132V121.277V122.384V123.842V125.515C200.625 126.553 201.464 127.394 202.5 127.394C203.535 127.394 204.375 126.553 204.375 125.515V123.842V119.879V119.253H205V119.879V125.515H204.999Z" fill="#4DA1FF"/>
</g>
<defs>
<filter id="filter0_d_2_1020" x="27.5" y="20.5" width="272" height="139" filterUnits="userSpaceOnUse" color-interpolation-filters="sRGB">
<feFlood flood-opacity="0" result="BackgroundImageFix"/>
<feColorMatrix in="SourceAlpha" type="matrix" values="0 0 0 0 0 0 0 0 0 0 0 0 0 0 0 0 0 0 127 0" result="hardAlpha"/>
<feOffset dy="4"/>
<feGaussianBlur stdDeviation="2"/>
<feComposite in2="hardAlpha" operator="out"/>
<feColorMatrix type="matrix" values="0 0 0 0 0 0 0 0 0 0 0 0 0 0 0 0 0 0 0.25 0"/>
<feBlend mode="normal" in2="BackgroundImageFix" result="effect1_dropShadow_2_1020"/>
<feBlend mode="normal" in="SourceGraphic" in2="effect1_dropShadow_2_1020" result="shape"/>
</filter>
<filter id="filter1_d_2_1020" x="0.5" y="0.5" width="334" height="201" filterUnits="userSpaceOnUse" color-interpolation-filters="sRGB">
<feFlood flood-opacity="0" result="BackgroundImageFix"/>
<feColorMatrix in="SourceAlpha" type="matrix" values="0 0 0 0 0 0 0 0 0 0 0 0 0 0 0 0 0 0 127 0" result="hardAlpha"/>
<feOffset dx="4" dy="15"/>
<feGaussianBlur stdDeviation="17.5"/>
<feColorMatrix type="matrix" values="0 0 0 0 0 0 0 0 0 0 0 0 0 0 0 0 0 0 0.11 0"/>
<feBlend mode="normal" in2="BackgroundImageFix" result="effect1_dropShadow_2_1020"/>
<feBlend mode="normal" in="SourceGraphic" in2="effect1_dropShadow_2_1020" result="shape"/>
</filter>
</defs>
</svg>
