<svg width="87" height="60" viewBox="0 0 87 60" fill="none" xmlns="http://www.w3.org/2000/svg">
<path d="M8.97 48.33C6.99 48.33 5.5 47.84 4.5 46.86C3.5 45.86 3 44.37 3 42.39V36.18H0.12V32.79H3V29.07L7.53 27.96V32.79H11.43V36.18H7.53V42.15C7.53 43.11 7.73 43.77 8.13 44.13C8.53 44.49 9.04 44.67 9.66 44.67C10.04 44.67 10.35 44.65 10.59 44.61C10.85 44.55 11.12 44.47 11.4 44.37V47.88C11.02 48.04 10.62 48.15 10.2 48.21C9.78 48.29 9.37 48.33 8.97 48.33ZM21.258 48.33C18.618 48.33 16.558 47.62 15.078 46.2C13.598 44.78 12.858 42.85 12.858 40.41C12.858 38.83 13.168 37.45 13.788 36.27C14.428 35.09 15.308 34.17 16.428 33.51C17.568 32.83 18.898 32.49 20.418 32.49C21.918 32.49 23.168 32.81 24.168 33.45C25.188 34.09 25.948 34.99 26.448 36.15C26.968 37.29 27.228 38.62 27.228 40.14V41.19H16.578V38.94H23.928L23.418 39.36C23.418 38.1 23.158 37.15 22.638 36.51C22.138 35.85 21.408 35.52 20.448 35.52C19.388 35.52 18.568 35.91 17.988 36.69C17.428 37.47 17.148 38.59 17.148 40.05V40.53C17.148 42.01 17.508 43.11 18.228 43.83C18.968 44.55 20.028 44.91 21.408 44.91C22.228 44.91 22.998 44.81 23.718 44.61C24.458 44.39 25.158 44.05 25.818 43.59L27.078 46.59C26.318 47.15 25.438 47.58 24.438 47.88C23.458 48.18 22.398 48.33 21.258 48.33ZM36.0122 48.33C34.6922 48.33 33.5322 48.01 32.5322 47.37C31.5322 46.73 30.7522 45.82 30.1922 44.64C29.6322 43.46 29.3522 42.04 29.3522 40.38C29.3522 38.74 29.6322 37.33 30.1922 36.15C30.7522 34.97 31.5322 34.07 32.5322 33.45C33.5322 32.81 34.6922 32.49 36.0122 32.49C37.2322 32.49 38.3222 32.79 39.2822 33.39C40.2622 33.97 40.9022 34.76 41.2022 35.76H40.8722L41.2322 32.79H45.5822C45.5222 33.45 45.4622 34.12 45.4022 34.8C45.3622 35.46 45.3422 36.11 45.3422 36.75V48H40.8422L40.8122 45.15H41.1722C40.8522 46.11 40.2122 46.88 39.2522 47.46C38.2922 48.04 37.2122 48.33 36.0122 48.33ZM37.3922 44.91C38.4322 44.91 39.2722 44.54 39.9122 43.8C40.5522 43.06 40.8722 41.92 40.8722 40.38C40.8722 38.84 40.5522 37.71 39.9122 36.99C39.2722 36.27 38.4322 35.91 37.3922 35.91C36.3522 35.91 35.5122 36.27 34.8722 36.99C34.2322 37.71 33.9122 38.84 33.9122 40.38C33.9122 41.92 34.2222 43.06 34.8422 43.8C35.4822 44.54 36.3322 44.91 37.3922 44.91ZM49.0573 48V36.75C49.0573 36.11 49.0373 35.46 48.9973 34.8C48.9573 34.12 48.8973 33.45 48.8173 32.79H53.1673L53.4973 35.61H53.1373C53.5773 34.65 54.2273 33.89 55.0873 33.33C55.9473 32.77 56.9673 32.49 58.1473 32.49C59.3073 32.49 60.2773 32.77 61.0573 33.33C61.8573 33.87 62.4273 34.72 62.7673 35.88H62.2873C62.7273 34.84 63.4273 34.02 64.3873 33.42C65.3473 32.8 66.4373 32.49 67.6573 32.49C69.3773 32.49 70.6573 33 71.4973 34.02C72.3373 35.04 72.7573 36.64 72.7573 38.82V48H68.2273V38.97C68.2273 37.91 68.0573 37.15 67.7173 36.69C67.3773 36.23 66.8273 36 66.0673 36C65.1673 36 64.4573 36.32 63.9373 36.96C63.4173 37.6 63.1573 38.48 63.1573 39.6V48H58.6273V38.97C58.6273 37.91 58.4573 37.15 58.1173 36.69C57.7773 36.23 57.2273 36 56.4673 36C55.5673 36 54.8573 36.32 54.3373 36.96C53.8373 37.6 53.5873 38.48 53.5873 39.6V48H49.0573ZM76.8833 48V40.32H84.6593V48H76.8833Z" fill="#1E2742"/>
</svg>
